<svg width="23" height="22" viewBox="0 0 23 22" fill="none" xmlns="http://www.w3.org/2000/svg">
<path fill-rule="evenodd" clip-rule="evenodd" d="M11.75 22C5.67487 22 0.75 17.0751 0.75 11C0.75 4.92487 5.67487 0 11.75 0C17.8251 0 22.75 4.92487 22.75 11C22.75 17.0751 17.8251 22 11.75 22ZM11.75 20C16.7206 20 20.75 15.9706 20.75 11C20.75 6.02944 16.7206 2 11.75 2C6.77944 2 2.75 6.02944 2.75 11C2.75 15.9706 6.77944 20 11.75 20ZM11.75 4C12.3023 4 12.75 4.44772 12.75 5V10.5858L15.4571 13.2929C15.8476 13.6834 15.8476 14.3166 15.4571 14.7071C15.0666 15.0976 14.4334 15.0976 14.0429 14.7071L11.0429 11.7071C10.8554 11.5196 10.75 11.2652 10.75 11V5C10.75 4.44772 11.1977 4 11.75 4Z" fill="black"/>
<mask id="mask0" mask-type="alpha" maskUnits="userSpaceOnUse" x="0" y="0" width="23" height="22">
<path fill-rule="evenodd" clip-rule="evenodd" d="M11.75 22C5.67487 22 0.75 17.0751 0.75 11C0.75 4.92487 5.67487 0 11.75 0C17.8251 0 22.75 4.92487 22.75 11C22.75 17.0751 17.8251 22 11.75 22ZM11.75 20C16.7206 20 20.75 15.9706 20.75 11C20.75 6.02944 16.7206 2 11.75 2C6.77944 2 2.75 6.02944 2.75 11C2.75 15.9706 6.77944 20 11.75 20ZM11.75 4C12.3023 4 12.75 4.44772 12.75 5V10.5858L15.4571 13.2929C15.8476 13.6834 15.8476 14.3166 15.4571 14.7071C15.0666 15.0976 14.4334 15.0976 14.0429 14.7071L11.0429 11.7071C10.8554 11.5196 10.75 11.2652 10.75 11V5C10.75 4.44772 11.1977 4 11.75 4Z" fill="white"/>
</mask>
<g mask="url(#mask0)">
<rect x="-0.25" y="-1" width="24" height="24" fill="black"/>
</g>
</svg>
