<svg width="25" height="24" viewBox="0 0 25 24" fill="none" xmlns="http://www.w3.org/2000/svg">
<path fill-rule="evenodd" clip-rule="evenodd" d="M14.7792 22.7354C15.8683 21.8682 16.957 20.8883 17.976 19.8127C20.9476 16.676 22.75 13.3716 22.75 10C22.75 4.47715 18.2728 0 12.75 0C7.22715 0 2.75 4.47715 2.75 10C2.75 13.3716 4.5524 16.676 7.52405 19.8127C8.543 20.8883 9.63175 21.8682 10.7208 22.7354C11.1026 23.0394 11.4578 23.3081 11.7778 23.5392C11.9728 23.68 12.1149 23.7784 12.1953 23.8321C12.5312 24.056 12.9688 24.056 13.3047 23.8321C13.3851 23.7784 13.5272 23.68 13.7222 23.5392C14.0422 23.3081 14.3974 23.0394 14.7792 22.7354ZM16.524 18.4373C15.5742 19.4398 14.5536 20.3584 13.5333 21.1708C13.2548 21.3926 12.9923 21.5936 12.75 21.7726C12.5077 21.5936 12.2452 21.3926 11.9667 21.1708C10.9464 20.3584 9.92575 19.4398 8.97595 18.4373C6.3226 15.6365 4.75 12.7534 4.75 10C4.75 5.58172 8.33172 2 12.75 2C17.1683 2 20.75 5.58172 20.75 10C20.75 12.7534 19.1774 15.6365 16.524 18.4373ZM12.75 14C10.5409 14 8.75 12.2091 8.75 10C8.75 7.79086 10.5409 6 12.75 6C14.9591 6 16.75 7.79086 16.75 10C16.75 12.2091 14.9591 14 12.75 14ZM14.75 10C14.75 11.1046 13.8546 12 12.75 12C11.6454 12 10.75 11.1046 10.75 10C10.75 8.89543 11.6454 8 12.75 8C13.8546 8 14.75 8.89543 14.75 10Z" fill="black"/>
<mask id="mask0" mask-type="alpha" maskUnits="userSpaceOnUse" x="2" y="0" width="21" height="24">
<path fill-rule="evenodd" clip-rule="evenodd" d="M14.7792 22.7354C15.8683 21.8682 16.957 20.8883 17.976 19.8127C20.9476 16.676 22.75 13.3716 22.75 10C22.75 4.47715 18.2728 0 12.75 0C7.22715 0 2.75 4.47715 2.75 10C2.75 13.3716 4.5524 16.676 7.52405 19.8127C8.543 20.8883 9.63175 21.8682 10.7208 22.7354C11.1026 23.0394 11.4578 23.3081 11.7778 23.5392C11.9728 23.68 12.1149 23.7784 12.1953 23.8321C12.5312 24.056 12.9688 24.056 13.3047 23.8321C13.3851 23.7784 13.5272 23.68 13.7222 23.5392C14.0422 23.3081 14.3974 23.0394 14.7792 22.7354ZM16.524 18.4373C15.5742 19.4398 14.5536 20.3584 13.5333 21.1708C13.2548 21.3926 12.9923 21.5936 12.75 21.7726C12.5077 21.5936 12.2452 21.3926 11.9667 21.1708C10.9464 20.3584 9.92575 19.4398 8.97595 18.4373C6.3226 15.6365 4.75 12.7534 4.75 10C4.75 5.58172 8.33172 2 12.75 2C17.1683 2 20.75 5.58172 20.75 10C20.75 12.7534 19.1774 15.6365 16.524 18.4373ZM12.75 14C10.5409 14 8.75 12.2091 8.75 10C8.75 7.79086 10.5409 6 12.75 6C14.9591 6 16.75 7.79086 16.75 10C16.75 12.2091 14.9591 14 12.75 14ZM14.75 10C14.75 11.1046 13.8546 12 12.75 12C11.6454 12 10.75 11.1046 10.75 10C10.75 8.89543 11.6454 8 12.75 8C13.8546 8 14.75 8.89543 14.75 10Z" fill="white"/>
</mask>
<g mask="url(#mask0)">
<rect x="0.75" width="24" height="24" fill="black"/>
</g>
</svg>
