<?xml version="1.0" encoding="utf-8"?>
<!-- Generator: Adobe Illustrator 24.1.0, SVG Export Plug-In . SVG Version: 6.00 Build 0)  -->
<svg version="1.1" xmlns="http://www.w3.org/2000/svg" xmlns:xlink="http://www.w3.org/1999/xlink" x="0px" y="0px"
	 viewBox="0 0 32 32" style="enable-background:new 0 0 32 32;" xml:space="preserve">
<style type="text/css">
	.st0{fill-rule:evenodd;clip-rule:evenodd;}
</style>
<path class="st0" d="M13,4.6l-6.6,5.4H1.4c-0.8,0-1.4,0.6-1.4,1.4v8.6c0,0.8,0.6,1.4,1.4,1.4h5.1L13,27c0.9,0.8,2.3,0.1,2.3-1.1V5.7
	C15.3,4.5,14,3.9,13,4.6z M7,12.9c0.3,0,0.6-0.1,0.9-0.3l4.7-3.9v14.1L7.8,19c-0.2-0.2-0.6-0.3-0.9-0.3H2.8v-5.7H7z"/>
<path class="st0" d="M21.3,19.1l3.2-3.3l-3.2-3.3c-0.5-0.6-0.5-1.5,0-2c0.5-0.6,1.4-0.6,2,0l3.2,3.3l3.2-3.3c0.5-0.6,1.4-0.6,2,0
	c0.5,0.6,0.5,1.5,0,2l-3.2,3.3l3.2,3.3c0.5,0.6,0.5,1.5,0,2c-0.5,0.6-1.4,0.6-2,0l-3.2-3.3l-3.2,3.3c-0.5,0.6-1.4,0.6-2,0
	C20.7,20.6,20.7,19.6,21.3,19.1z"/>
</svg>
