<svg width="30" height="22" viewBox="0 0 30 22" fill="none" xmlns="http://www.w3.org/2000/svg">
<path fill-rule="evenodd" clip-rule="evenodd" d="M27.4664 18.9311L19.5352 10.9999L27.4664 3.0687V18.9311ZM3.70395 20.1015L11.6784 12.1263L14.4727 14.8967C14.7959 15.2175 15.3176 15.2167 15.6408 14.8943L18.3647 12.1703L26.2959 20.1015H3.70395ZM2.53355 18.9311V3.0607L10.5032 10.9615L2.53355 18.9311ZM26.2959 1.8983L15.052 13.1423L3.71195 1.8983H26.2959ZM26.6392 0.243896H3.36075C1.99355 0.243896 0.87915 1.3575 0.87915 2.7255V19.2743C0.87915 20.6375 1.98875 21.7559 3.36075 21.7559H26.6392C28.0023 21.7559 29.1208 20.6463 29.1208 19.2743V2.7255C29.1208 1.3623 28.0112 0.243896 26.6392 0.243896Z" fill="white"/>
</svg>
