<svg width="144" height="146" viewBox="0 0 144 146" fill="none" xmlns="http://www.w3.org/2000/svg">
<path fill-rule="evenodd" clip-rule="evenodd" d="M142.959 70.5465C141.774 31.4384 109.109 0.696125 70.0006 1.88109C30.8916 3.06692 0.1485 35.7315 1.33433 74.8405C2.51929 113.949 35.1847 144.692 74.2938 143.506C113.403 142.32 144.145 109.656 142.959 70.5465Z" fill="white"/>
<path fill-rule="evenodd" clip-rule="evenodd" d="M142.959 70.5465C141.774 31.4384 109.109 0.696125 70.0006 1.88109C30.8916 3.06692 0.1485 35.7315 1.33433 74.8405C2.51929 113.949 35.1847 144.692 74.2938 143.506C113.403 142.32 144.145 109.656 142.959 70.5465Z" stroke="#E6B071" stroke-width="1.2"/>
<path fill-rule="evenodd" clip-rule="evenodd" d="M91.1398 36.866L71.8898 37.4116L81.9533 53.8354L91.1398 36.866Z" fill="#E6B071"/>
<path fill-rule="evenodd" clip-rule="evenodd" d="M91.1398 36.866L71.8898 37.4116L81.9533 53.8354L91.1398 36.866Z" stroke="white" stroke-width="1.2"/>
<path fill-rule="evenodd" clip-rule="evenodd" d="M82.8793 89.0793L92.0945 72.063L72.7811 72.6104L82.8793 89.0793Z" fill="#E6B071"/>
<path fill-rule="evenodd" clip-rule="evenodd" d="M82.8793 89.0793L92.0945 72.063L72.7811 72.6104L82.8793 89.0793Z" stroke="white" stroke-width="1.2"/>
<path fill-rule="evenodd" clip-rule="evenodd" d="M71.3379 36.5119L80.547 19.5034L61.2501 20.049L71.3379 36.5119Z" fill="#E6B071"/>
<path fill-rule="evenodd" clip-rule="evenodd" d="M71.3379 36.5119L80.547 19.5034L61.2501 20.049L71.3379 36.5119Z" stroke="white" stroke-width="1.2"/>
<path fill-rule="evenodd" clip-rule="evenodd" d="M101.772 54.1925L82.5066 54.7381L92.577 71.1723L101.772 54.1925Z" fill="#E6B071"/>
<path fill-rule="evenodd" clip-rule="evenodd" d="M101.772 54.1925L82.5066 54.7381L92.577 71.1723L101.772 54.1925Z" stroke="white" stroke-width="1.2"/>
<path fill-rule="evenodd" clip-rule="evenodd" d="M72.7747 72.0239L92.0759 71.4774L81.9846 55.0094L72.7747 72.0239Z" fill="#E6B071"/>
<path fill-rule="evenodd" clip-rule="evenodd" d="M72.7747 72.0239L92.0759 71.4774L81.9846 55.0094L72.7747 72.0239Z" stroke="white" stroke-width="1.2"/>
<path fill-rule="evenodd" clip-rule="evenodd" d="M91.5032 36.2696L81.2237 19.484L71.8342 36.8265L91.5032 36.2696Z" fill="#E6B071"/>
<path fill-rule="evenodd" clip-rule="evenodd" d="M91.5032 36.2696L81.2237 19.484L71.8342 36.8265L91.5032 36.2696Z" stroke="white" stroke-width="1.2"/>
<path fill-rule="evenodd" clip-rule="evenodd" d="M50.8761 38.007L41.4996 55.3131L61.1461 54.757L50.8761 38.007Z" fill="#E6B071"/>
<path fill-rule="evenodd" clip-rule="evenodd" d="M50.8761 38.007L41.4996 55.3131L61.1461 54.757L50.8761 38.007Z" stroke="white" stroke-width="1.2"/>
<path fill-rule="evenodd" clip-rule="evenodd" d="M41.3399 55.6081L41.3382 55.6124L41.3408 55.6116L41.3399 55.6081Z" fill="#E6B071"/>
<path fill-rule="evenodd" clip-rule="evenodd" d="M41.3399 55.6081L41.3382 55.6124L41.3408 55.6116L41.3399 55.6081Z" stroke="white" stroke-width="1.2"/>
<path fill-rule="evenodd" clip-rule="evenodd" d="M12.2704 109.288L32.243 108.722L21.8073 91.6825L12.2704 109.288Z" fill="#E6B071"/>
<path fill-rule="evenodd" clip-rule="evenodd" d="M12.2704 109.288L32.243 108.722L21.8073 91.6825L12.2704 109.288Z" stroke="white" stroke-width="1.2"/>
<path fill-rule="evenodd" clip-rule="evenodd" d="M60.5742 20.0681L51.1786 37.4114L70.8597 36.8545L60.5742 20.0681Z" fill="#E6B071"/>
<path fill-rule="evenodd" clip-rule="evenodd" d="M60.5742 20.0681L51.1786 37.4114L70.8597 36.8545L60.5742 20.0681Z" stroke="white" stroke-width="1.2"/>
<path fill-rule="evenodd" clip-rule="evenodd" d="M61.6356 54.4331L70.8342 37.4411L51.5521 37.9876L61.6356 54.4331Z" fill="#E6B071"/>
<path fill-rule="evenodd" clip-rule="evenodd" d="M61.6356 54.4331L70.8342 37.4411L51.5521 37.9876L61.6356 54.4331Z" stroke="white" stroke-width="1.2"/>
<path fill-rule="evenodd" clip-rule="evenodd" d="M134.138 105.836L123.703 88.796L114.165 106.401L134.138 105.836Z" fill="#E6B071"/>
<path fill-rule="evenodd" clip-rule="evenodd" d="M134.138 105.836L123.703 88.796L114.165 106.401L134.138 105.836Z" stroke="white" stroke-width="1.2"/>
<path fill-rule="evenodd" clip-rule="evenodd" d="M123.349 88.2195L113.086 71.46L103.708 88.7764L123.349 88.2195Z" fill="#E6B071"/>
<path fill-rule="evenodd" clip-rule="evenodd" d="M123.349 88.2195L113.086 71.46L103.708 88.7764L123.349 88.2195Z" stroke="white" stroke-width="1.2"/>
<path fill-rule="evenodd" clip-rule="evenodd" d="M113.811 105.825L123.026 88.8155L103.723 89.362L113.811 105.825Z" fill="#E6B071"/>
<path fill-rule="evenodd" clip-rule="evenodd" d="M113.811 105.825L123.026 88.8155L103.723 89.362L113.811 105.825Z" stroke="white" stroke-width="1.2"/>
<path fill-rule="evenodd" clip-rule="evenodd" d="M102.275 53.885L102.274 53.8868L102.277 53.8885L102.275 53.885Z" fill="#E6B071"/>
<path fill-rule="evenodd" clip-rule="evenodd" d="M102.275 53.885L102.274 53.8868L102.277 53.8885L102.275 53.885Z" stroke="white" stroke-width="1.2"/>
<path fill-rule="evenodd" clip-rule="evenodd" d="M73.188 106.975L82.3988 89.9667L63.0907 90.5132L73.188 106.975Z" fill="#E6B071"/>
<path fill-rule="evenodd" clip-rule="evenodd" d="M73.188 106.975L82.3988 89.9667L63.0907 90.5132L73.188 106.975Z" stroke="white" stroke-width="1.2"/>
<path fill-rule="evenodd" clip-rule="evenodd" d="M112.69 70.893L102.45 54.1717L93.094 71.4491L112.69 70.893Z" fill="#E6B071"/>
<path fill-rule="evenodd" clip-rule="evenodd" d="M112.69 70.893L102.45 54.1717L93.094 71.4491L112.69 70.893Z" stroke="white" stroke-width="1.2"/>
<path fill-rule="evenodd" clip-rule="evenodd" d="M72.2867 72.9253L63.0837 89.9269L82.3763 89.3803L72.2867 72.9253Z" fill="#E6B071"/>
<path fill-rule="evenodd" clip-rule="evenodd" d="M72.2867 72.9253L63.0837 89.9269L82.3763 89.3803L72.2867 72.9253Z" stroke="white" stroke-width="1.2"/>
<path fill-rule="evenodd" clip-rule="evenodd" d="M102.094 53.597L91.8258 36.8296L82.4485 54.1539L102.094 53.597Z" fill="#E6B071"/>
<path fill-rule="evenodd" clip-rule="evenodd" d="M102.094 53.597L91.8258 36.8296L82.4485 54.1539L102.094 53.597Z" stroke="white" stroke-width="1.2"/>
<path fill-rule="evenodd" clip-rule="evenodd" d="M102.694 88.8049L92.6087 72.3455L83.3988 89.3514L102.694 88.8049Z" fill="#E6B071"/>
<path fill-rule="evenodd" clip-rule="evenodd" d="M102.694 88.8049L92.6087 72.3455L83.3988 89.3514L102.694 88.8049Z" stroke="white" stroke-width="1.2"/>
<path fill-rule="evenodd" clip-rule="evenodd" d="M93.499 106.4L102.71 89.3914L83.4052 89.9371L93.499 106.4Z" fill="#E6B071"/>
<path fill-rule="evenodd" clip-rule="evenodd" d="M93.499 106.4L102.71 89.3914L83.4052 89.9371L93.499 106.4Z" stroke="white" stroke-width="1.2"/>
<path fill-rule="evenodd" clip-rule="evenodd" d="M112.404 71.4877L93.1052 72.035L103.194 88.497L112.404 71.4877Z" fill="#E6B071"/>
<path fill-rule="evenodd" clip-rule="evenodd" d="M112.404 71.4877L93.1052 72.035L103.194 88.497L112.404 71.4877Z" stroke="white" stroke-width="1.2"/>
<path fill-rule="evenodd" clip-rule="evenodd" d="M70.4365 1.86816L60.8987 19.4726L80.8704 18.907L70.4365 1.86816Z" fill="#E6B071"/>
<path fill-rule="evenodd" clip-rule="evenodd" d="M70.4365 1.86816L60.8987 19.4726L80.8704 18.907L70.4365 1.86816Z" stroke="white" stroke-width="1.2"/>
<path fill-rule="evenodd" clip-rule="evenodd" d="M93.8531 106.977L113.488 106.42L103.225 89.6709L93.8531 106.977Z" fill="#E6B071"/>
<path fill-rule="evenodd" clip-rule="evenodd" d="M93.8531 106.977L113.488 106.42L103.225 89.6709L93.8531 106.977Z" stroke="white" stroke-width="1.2"/>
<path fill-rule="evenodd" clip-rule="evenodd" d="M71.3692 37.6851L62.142 54.7283L81.477 54.1809L71.3692 37.6851Z" fill="#E6B071"/>
<path fill-rule="evenodd" clip-rule="evenodd" d="M71.3692 37.6851L62.142 54.7283L81.477 54.1809L71.3692 37.6851Z" stroke="white" stroke-width="1.2"/>
<path fill-rule="evenodd" clip-rule="evenodd" d="M53.2303 108.127L72.8655 107.571L62.5956 90.8273L53.2303 108.127Z" fill="#E6B071"/>
<path fill-rule="evenodd" clip-rule="evenodd" d="M53.2303 108.127L72.8655 107.571L62.5956 90.8273L53.2303 108.127Z" stroke="white" stroke-width="1.2"/>
<path fill-rule="evenodd" clip-rule="evenodd" d="M73.5422 107.552L93.1774 106.996L82.9109 90.253L73.5422 107.552Z" fill="#E6B071"/>
<path fill-rule="evenodd" clip-rule="evenodd" d="M73.5422 107.552L93.1774 106.996L82.9109 90.253L73.5422 107.552Z" stroke="white" stroke-width="1.2"/>
<path fill-rule="evenodd" clip-rule="evenodd" d="M41.1789 55.9088L31.8207 73.1845L51.4333 72.6285L41.1789 55.9088Z" fill="#E6B071"/>
<path fill-rule="evenodd" clip-rule="evenodd" d="M41.1789 55.9088L31.8207 73.1845L51.4333 72.6285L41.1789 55.9088Z" stroke="white" stroke-width="1.2"/>
<path fill-rule="evenodd" clip-rule="evenodd" d="M72.2545 71.752L81.4488 54.7686L62.1763 55.3143L72.2545 71.752Z" fill="#E6B071"/>
<path fill-rule="evenodd" clip-rule="evenodd" d="M72.2545 71.752L81.4488 54.7686L62.1763 55.3143L72.2545 71.752Z" stroke="white" stroke-width="1.2"/>
<path fill-rule="evenodd" clip-rule="evenodd" d="M62.5641 89.6546L71.7749 72.6391L52.4633 73.1865L62.5641 89.6546Z" fill="#E6B071"/>
<path fill-rule="evenodd" clip-rule="evenodd" d="M62.5641 89.6546L71.7749 72.6391L52.4633 73.1865L62.5641 89.6546Z" stroke="white" stroke-width="1.2"/>
<path fill-rule="evenodd" clip-rule="evenodd" d="M51.9741 73.5089L42.7737 90.5027L62.061 89.9562L51.9741 73.5089Z" fill="#E6B071"/>
<path fill-rule="evenodd" clip-rule="evenodd" d="M51.9741 73.5089L42.7737 90.5027L62.061 89.9562L51.9741 73.5089Z" stroke="white" stroke-width="1.2"/>
<path fill-rule="evenodd" clip-rule="evenodd" d="M52.8762 107.55L62.0835 90.5419L42.7953 91.0875L52.8762 107.55Z" fill="#E6B071"/>
<path fill-rule="evenodd" clip-rule="evenodd" d="M52.8762 107.55L62.0835 90.5419L42.7953 91.0875L52.8762 107.55Z" stroke="white" stroke-width="1.2"/>
<path fill-rule="evenodd" clip-rule="evenodd" d="M61.6669 55.6064L52.4666 72.5992L71.7513 72.0527L61.6669 55.6064Z" fill="#E6B071"/>
<path fill-rule="evenodd" clip-rule="evenodd" d="M61.6669 55.6064L52.4666 72.5992L71.7513 72.0527L61.6669 55.6064Z" stroke="white" stroke-width="1.2"/>
<path fill-rule="evenodd" clip-rule="evenodd" d="M31.5072 73.7792L22.1307 91.0869L41.7659 90.5309L31.5072 73.7792Z" fill="#E6B071"/>
<path fill-rule="evenodd" clip-rule="evenodd" d="M31.5072 73.7792L22.1307 91.0869L41.7659 90.5309L31.5072 73.7792Z" stroke="white" stroke-width="1.2"/>
<path fill-rule="evenodd" clip-rule="evenodd" d="M32.5653 108.126L41.7743 91.1171L22.4835 91.6627L32.5653 108.126Z" fill="#E6B071"/>
<path fill-rule="evenodd" clip-rule="evenodd" d="M32.5653 108.126L41.7743 91.1171L22.4835 91.6627L32.5653 108.126Z" stroke="white" stroke-width="1.2"/>
<path fill-rule="evenodd" clip-rule="evenodd" d="M51.4674 73.2142L32.1836 73.7607L42.2619 90.2175L51.4674 73.2142Z" fill="#E6B071"/>
<path fill-rule="evenodd" clip-rule="evenodd" d="M51.4674 73.2142L32.1836 73.7607L42.2619 90.2175L51.4674 73.2142Z" stroke="white" stroke-width="1.2"/>
<path fill-rule="evenodd" clip-rule="evenodd" d="M31.6681 73.4649L31.6533 73.49L31.669 73.4822L31.6681 73.4649Z" fill="#E6B071"/>
<path fill-rule="evenodd" clip-rule="evenodd" d="M31.6681 73.4649L31.6533 73.49L31.669 73.4822L31.6681 73.4649Z" stroke="white" stroke-width="1.2"/>
<path fill-rule="evenodd" clip-rule="evenodd" d="M32.9193 108.703L52.5545 108.146L42.2932 91.3904L32.9193 108.703Z" fill="#E6B071"/>
<path fill-rule="evenodd" clip-rule="evenodd" d="M32.9193 108.703L52.5545 108.146L42.2932 91.3904L32.9193 108.703Z" stroke="white" stroke-width="1.2"/>
<path fill-rule="evenodd" clip-rule="evenodd" d="M61.1425 55.3438L41.8552 55.8903L51.943 72.3366L61.1425 55.3438Z" fill="#E6B071"/>
<path fill-rule="evenodd" clip-rule="evenodd" d="M61.1425 55.3438L41.8552 55.8903L51.943 72.3366L61.1425 55.3438Z" stroke="white" stroke-width="1.2"/>
<path fill-rule="evenodd" clip-rule="evenodd" d="M31.6605 73.1888L31.6683 73.4646L31.821 73.1844L31.6605 73.1888Z" fill="#E6B071"/>
<path fill-rule="evenodd" clip-rule="evenodd" d="M31.6605 73.1888L31.6683 73.4646L31.821 73.1844L31.6605 73.1888Z" stroke="white" stroke-width="1.2"/>
<path fill-rule="evenodd" clip-rule="evenodd" d="M31.641 73.5141L31.6541 73.4906L31.419 73.6355L31.5075 73.7795L31.6463 73.5227L31.641 73.5141Z" fill="#E6B071"/>
<path fill-rule="evenodd" clip-rule="evenodd" d="M31.641 73.5141L31.6541 73.4906L31.419 73.6355L31.5075 73.7795L31.6463 73.5227L31.641 73.5141Z" stroke="white" stroke-width="1.2"/>
</svg>
